<svg height="2000" viewBox="6.298 4.613 100.001 89.988" width="1900" xmlns="http://www.w3.org/2000/svg" fill="#fff" stroke="#fff">
<path d="m43.916 59.554v-.133h-.133l-.709-.133z" fill="#fff" stroke="#fff" stroke-width="1"/>

<path d="m37.403 47.236v1.241l.133.132.354.489h.62l.266-.134.222-.355v-1.594l-.355.354.133.133-.133.222-.133-.089v-.266h.133l.355-.354-.133-.399-.089-.221-.266-.266-.487.133-.487.487v.266zm-12.274 3.456v-.132l-.132-.222-.355-.267-.753.134-.133.222-.132.133v.265l-.089.133.487.222.975-.222zm13.381 4.786-.133.398v.089l.399.398.487-.398-.133-.089 2.703.089v.133h-1.949l-.621-.133-.487.398 1.596.222 11.032.753.753.222h.753l2.437.487h.62l.133-.088-.266-.399-1.816-.355-1.728-.133-1.108-.221zm-2.436 2.481h-1.596l.089.088.62.399 2.614.221 2.571.621v-.222l-.4-.399-1.196-.088-1.108-.399z" stroke="#fff" stroke-width="1"/>
<path d="m56.1 62.61v-.221l-.266-.266-.621-.354-.088.487v.133h-1.241l-1.993-.62-.709-.133-6.292-1.861-.575-.221.975.133 1.594.487h.576l7.045 1.816.62.266.088-.487-3.898-.975-.753-.266-12.185-2.836-.354-.132-1.107-.222h-.488l-.842-.266-1.241.133-.133.133.133.222.355-.222.62.222 1.596.265.885.355 2.791.399.134.088.975.267-.355.132-.266.355h.133l10.944 2.968 3.056.488zm-31.945-2.214v-.222l-.266-.266-.62.133-.133.133v.089zm13.646 1.506v.487l.488.354.354-.354-.354-.266.088-.133 1.507.488h.221l5.805 2.481.354.133 1.728.974v.133h-.133l-7.754-3.234-.487-.088-.975-.488-.354.354 6.734 2.57.134.133.753.355.62.133 2.303.974.399.133.709.133.134-.133-.488-.354-.488-.488-2.569-1.595-.753-.265-.487-.266-6.292-2.304-.975-.133zm-4.563 7.975-.133-.133-.354-.133h-.266l.133.487.753.398.354.222.354.133.133.266v.089l.842.399.532.354h.088l.266.354.222.487v.178l.267.089.354.354.398.266.222.487.133.133h.133l.354.487 1.107 1.107v.133l.133.089v.178l.222.222v.088l.266.266v.134l.134.133.088.354.133.133.133.62v.222l.134.487v.266l.133.222.222.266.133.222v.133l.354.354v.133l.133.133v.354l.133.266.133.354v.488l1.107 1.24.089.62v2.215l.133.222v.267l.133.133v.709l-.133.133v.266l.487.354v.266l-.133.354v.487l.133.133.266-.487v-.133l.089-.133v-.354l-.222-.266.133-.709h-.133v-.753l-.133-.354v-.887l-.133-.842v-.133l.133-.266v-.842l-1.24-1.24c-.089-.089-.222-.222-.089-.488l-.133-.62v-.088l-.133-.267v-.266l-.133-.089-.089-.266-.398-.354v-.133l-.134-.133-.088-.222-.133-.487v-.133l-.133-.266v-.621l-.134-.221v-.089h-.088v-.266l-.133-.133-.267-.399-.133-.222-.222-.266v-.089l-.133-.133v-.13l-.354-.266v-.089l-.975-.975-.133-.266-.62-.62-.266-.354v-.133l-.088-.089h-.133l-.266-.266-.222-.399v-.222l-.266-.266-.134-.221-.222-.134-1.107-.354-.354-.266h.089v-.22l-.354-.266zm-11.076 9.836c-.355-.133-.843 0-1.463.487l-.266.222-.709.266-.62.62-1.24.843-.133.266-.621.62-.088.222-.134.133v.266l.222.222 1.994-.133.709-.089h.398l.354.222.354.354.487.398.266.354.354.354.134.266.266.267.088.221v.133l.267.222.133.399.133.133.709.354.266-.267h.133v-1.816h.089v-.487l.133-.133v-.266l-.133-.222v-.487l-.089-.398v-.354h-.133v-.354l-.133-.133-.266.133.133.709v.753l.133.354v.62h-.133v1.374l-.133.222-.222.133-.354-.354v-.134l-.133-.133v-.221l-.266-.267-.354-.487-.133-.133-.134-.222v-.133l-.222-.266-.266-.133-.133-.089-.089-.266-.62-.354-1.107-.487-.753.222h-.842v-.354l1.595-1.107.354-.488 1.996-1.11.354.133.133.089.222.133.133.266.133.134.133.221.089.133v.222h.133v.267l.133.133v.222h.133v.266l.089.133.266-.133v-.354l-.133-.266-.133-.354v-.134l-.089-.354v-.137l-.133-.133v-.133l-.133-.133-.62-.487zm13.158 10.323v-.133l-.133-.133v-.088l-1.107-1.108-.487-.133-.62.133-1.107.576-.842.886v.222l-.621.62-.487.398-.133.267-.133.089-.222.354v.267l.133.133 1.329.222h1.463v-.354l-.843-.134h-1.24l-.089-.221v-.266l.089-.089.266-.178.133-.089.709-.62.133-.133.488-.62.266-.133c.354-.354.709-.62 1.107-.709h.62l.576.621.266.354v.222h.133v.266l.089.266v.222l.133 1.241v.221h.133v.754l.134.354v.398l-.134.089h-.487l-.753-.709v-.133h-.089l-.398-.354-.133-.266h-.089l-1.019-.354v.487h.133l.62.222.354.398.266.354h.133l.222.354.266.266.842.266.621-.133.132-.266v-.354l-.132-.62v-.62l-.134-.621v-.62l-.088-.576v-.266l-.133-.089v-.266zm44.263-48.914 1.329.842.265.354.488.399-.488.487v.222l.754.265.222.222v.133l.265.266.088.221.267.178.133.222.22.354.134.133.266.398v.444h-.133l-.133.265v.089l.266.31.222.31v.133l.62.62.265.355v.133l.222.487v.487l.133.134.133.266v.087h.088v.622l.266.487v.133l.133.265.134.089v.266l.088.265.265.355v.133l.133.221.089.133v.355h.133v.265l.133.355v.266h.132v.222l.134.266.088.133v.088l.134.133.133.355.132.265.088.133.133.222v.133l.134.354v.133l.133.487.133.266v.222l.088.399v.221h.133v.399l.266.487v.621h.089v.221h.487v-.221h-.089v-.399h-.133v-.222l-.132-.132v-.621l-.133-.266-.089-.088v-.399l-.133-.488v-.221l-.133-.266v-.133l-.133-.089v-.265l-.088-.133-.133-.355v-.132h-.133v-.222l-.134-.133v-.266l-.133-.088-.22-.753v-.134l-.133-.133-.134-.222v-.132l-.354-.753v-.222l-.133-.133-.133-.354v-.133l-.089-.133-.133-.222v-.265l-.133-.133-.22-.487v-.222h-.134v-.267l-.133-.353v-.267l-.133-.088v-.133l-.133-.266v-.133l-.088-.222v-.265l-.133-.088-.133-.267-.222-.354-.133-.266-.354-.354.089-.266v-.354l-.089-.355-.133-.222h-.133v-.31h-.132l-.133-.221-.355-.487-.134-.267-.486-.709-.134-.133v-.088l-.22-.399-.133-.133v-.265l-.134-.089-.222-.399-.132-.221-.621-.62-.354-.488h-.133l-.487-.399-.62.265zm-41.073-16.261-.221-.221v-.133l-.133-.133-.266-.133-.222.266.222.265.266.709v.488h-.133v.134l-.133.132-.222.354-.62-.221-.132-.265-.222-.222v-.134l-.133-.266v-.132h.133v-.355l.089-.133.133-.221.752-.133.222-.266-.487-.089h-.487l-.355.222-.133.133-.266.354v1.02l.133.354.133.133.133.221.355.134.974.131.133-.265.354-.354.133-.354z" stroke="#fff" stroke-width="1"/>
<path d="m73.291 5.101v.842l.133.354.134.133.133.266v.488l.089.354v.354l.133.267v1.107h.133v.753l.133.088v.267l.133.133v.62h.089v1.685l.133.133v.266l.133.354v1.107l.133.266v.354l.089.133-.089.089.089.266v.975h.133v1.596l.133.974v1.994l-.133.222v2.481l-.133.133.133.222v.487h-.133v.886l-.089.222v.267l-.133.221v.398l-1.595.621c-.399.089-.754.222-.976.354l-1.24.222-1.107 1.019v.975l-.133.133v.222l-.133.886-.222.354-.133.355-.133.132-.133.267v.222l-.089.133v.354l.222.133.398-.266.089-.089v-.266l.62.133 1.24.62c1.108.62 1.861.975 2.082.975l.267.133 1.107.354.709.354.753.532v.222h-.62l-.222.266 1.816.975 1.463 1.107v.133l-.089.089-1.02-.222-.354.222.488.266c.62.133 1.24.399 1.595.754l1.24 1.196.487.398.354.487h.133l-.133-.399-1.107-1.107-.089-.575-.266-.133-.222-.488-.62-.886-1.594-1.334-.134-.133.222-.266v-.222l-.709-.486-.398-.399-.842-.576-3.456-1.24-1.196-.753v-.222l.842.089h.621v-.222l-.134-.134-1.462-.265-.62-.487.133-.09 1.107.223h.354l1.107.266h.354l.267-.134-.134-.265-2.348-.488-.709-.222.133-.133.222-.133 1.373.133 2.083.621.842.354.266-.133v-.222l-.133-.134-.753-.487-1.108-.266-2.79-.353-.133-.133.133-.089h.576l1.107-.133h1.861v-.133l-1.108-.266h-2.215l-.133-.089.753-.398 1.329-.487 1.241-.222.886-.487v-.134l.487-.753v-.486l.133-.134v-3.544l.089-.267-.089-.221.089-.621v-3.589h-.089v-1.329l-.133-.975v-.62l-.133-.62v-.62h-.133v-.487l-.133-.266v-.355l-.089-.354v-1.995l-.133-.088v-.751l-.133-.267v-.353l-.133-.134v-.841l-.087-.134v-.487l-.133-.133v-.133l-.133-.222v-.132l-.621-1.729-.353-.088-.887.222-.222.266-.133.221-.133.134-.221.354-.487 1.107-.266.267-.221.487-.133.133-.753.975-.133.221-.354.399v.221l-.266.266-.842 1.595-.134.354-.133.133-.089.267-.133.354-.266.222-.089.266-.133.133-.266.487v.133l-.089.089-.266.753-.266.133v.133l-.222.487-.133.089-.133.266v.133l-.089.354v.133l-.133.134v.221l-.133.134v.354l-.133.267v.354l-.487.974v.134l-.133.133-.488.753-.133.354-.089.133-.133.487-.354.487-.134.488-.128.131-.133.221-.222.399-.133.089v.133l-.133.266v.222l.133.886.842 1.107.398.354v.133h.089l.133.355.399.62v.619l-.399-.132-.487-.487-1.949-1.108-.62.621 2.215 1.595.62.753.222.222.267.133.133-.266-.754-.709-.975-.753-.62-.621v-.133l-.133-.088.62.354.267.266.487.354.088.134.62.354.267.222.133.266v.354l-.133.266.133.133v.354h-.133l-.399-.133-2.171-1.595-.62.133.354.354 1.24.753.134.222-.267-.089-3.189-.487-.754-.266-.709-.133-.133-.133h-2.082l-.532-.222v-.354l.399-.398 1.24-.354.576-.134.133-.221-.354-.133h-.354l-.398.133v.088l-.222.133-.753.134v-.134h.133l.222-.221h.62l.398-.133.975-.488v-.133h-.398l-.576.267-1.24.088-.399-.222-.221.488h-.135l.133.221v.532l-.133.221-.133.62-.488.222-2.348.266-.089-.487v-1.861l.089-.088v-.622l.133-.266-.133-.133v-.354l-.089-.133-.133-.222.133-.266-.886-.487-.488-.354-.088-.133v-.133l-.133-.222v-.886l.133-.355v-.266l.088-.089.267-.531v-.089l.088-.266v-.133l.134-.089.133-.266v-.354l.133-.133v-.354l.222-.886v-.354l.133-.354.133-.266v-.134l.222-.354v-.266l.133-.089v-.266l.133-.133v-.133l.133-.222.133-.133v-.222l.089-.133v-.267l.133-.132v-.222l.133-.134.487-.974.266-.754.089-.088.133-.267.133-.133.354-.709.488-.531.62-.843.133-.221.266-.398.975-.975.133.133.089.221v.267l.133.133v.487l.133.354v.134l.133.354v1.108l.089.266v.709l.133.267v1.728l.133.221v.134l.133.133v.62l.133.222v1.595l.089.267v1.462l-.089.133v1.329l.089.133v.62l.133.267v.222l.133.133v.975l-.354.753-2.215 1.107-.398.354-.134.266.134.089v.266h.266l1.107-.266h.487l.62-.089-.398-.266h-.842v-.133l.753-.354 1.108-.753.088-.222.266-1.374v-.354l-.133-.133v-1.463l-.133-.133v-2.349l-.088-.221v-1.108h.088l-.088-.133v-1.595l-.134-.266v-.842l-.133-.222v-.133l-.133-.398v-.488l-.089-.221v-.399l-.133-.222v-1.241l-.133-.354v-.352l-.133-.266v-.487l-.227-.487v-.133l-.133-.267v-.087l-.133-.267h-.62l-.842.887h-.132v.222l-.354.354-.398.753-.709.754-.399.709-.487.62-.133.133v.134l-.089.221-.133.488-.133.133v.133l-.222.354v.398l-.266.221v.134l-.133.222-.133.132v.267l-.089.222v.266l-.266.354v.133l-.133.266v.089l-.089.266-.133.134v.221l-.133.399-.267.222v.266l-.088.222v.133l-.133.133v.62l-.134.222v.354l-.088.134v.487l-.133.398-.267.487v.133l-.266.488v.222l-.088.397v.355l.088.222.133.133v.266l.267.222 1.462.975-.222.62-1.728-.842-1.02-.266c-.089-.089-.222 0-.354.133l.487.354c.398 0 .753.133.975.398l-.354.222-.222.398h.842l.754.089.62.266-.133.267-.975.088-.532.134v.133h.665l.354-.133.487.133v.354l-.133.266-1.241.134-.133.222.133.132.532-.132.442-.222.399.089v.398l-.399.222.134.354v.266l-.354.133-.134-.266.488-.133-.134-.354-.708.354c-.621.133-.843.266-.843.398l-.753.354-.133.133-.222-.133.089-.354v-.398l-.089-.222-1.373-.354v-.398l-.487-.975-.975-1.241-.621-.354-.354-.753-.621-.62v-.222l-.133-.133-.133-.354-.709-.975-.753-.621-1.595-.975v-.266l-.134-.267-.133-.088v-1.24l-.133-.133v-.134l-.088-.221v-.133l-.127-.359h-.133v-.267l-.221-.354-.134-.266v-.089l-.753-1.639v-.222l-.133-.134-.089-.354-.133-.133h-.354l-.266.133v.222l-.133.132-.134.267v.354l-.088.266v.487l-.133.354v.975l-.266.267-.222-.399-.487-.975v-.133l-.134-.222v-.133l-.132-.222-.354-.399h-.267l-.133.267v.222l-.089.266v.354l-.133.266v1.108l-.129.355v.753l.133.133h-.133v.709h.133v.753l.133.133v.222l.089.266v2.438l-.709 1.462v.62l-.133.133v.753l.266-.133.089-.266.132-.09.133-.266.133.133v.133l-.266.487.133.222.133.134h.089v.133h-.089l-.133.221-.266.133-.089-.133v-.842l-.266.133h-.132l.133.355v.62l.133.266v.709l.133.354v1.019h-.133v.709l-.133.133v.753l.133.222v.398l.133.223.089.619.133.267.266.709.222.266.267.487-.488.487-.268.353h-.354l-.354.267-.133-.267v-.354l-.266-.133-.222.398-.266.488v.088l-.753.754-.222.753-.266.221-.222.399-.267.487-.133.089v.266l-.088.133-.133.222-.267.398v.089l-.089.178-.398.708-.222.222-.266.399v.088l-.222.532-.133.088-.133.267-.133.133-.089.354-.133.266v.266l-.133.222v.222l-.133.266v.133l-.133.266v.311l-.089.266v.267l-.133.487v.222l-.133.266v.398l-.133.089-.487.709-.354.31-2.969.798-1.462.886v.222l-.133.267-.134.133v1.107l.134.222v.398l-.222.354-.399 1.107v.133l-.354.487h-.749l-.088-.133-.399-.133h-.222l-.398.133.133.266.133.089.975.266.62.222.133.267v.975l-.133.133-1.374.216-2.569 1.019v.222l.133.266 3.677-1.24.266.266-.133.222v.266l-.133.089v.133l-.133.266v.222l-.089.133v.266l-.62.354-.399.351 1.019-.133.089.133.133.267.133.354v.134l.133.221v.134l.134.398v.089l.088.266v.133l.134.089.133.266-.133.266-1.108.222-.62.266-.222.222v.62l.089.133-.089.133-1.24 1.817-.62.398-.62.576-.354.266v.354l-.133.133-.621.487-.222.354-1.728 1.861-1.107.886-.62.354-.621.222.267.531-1.241 1.196-.266.399v.088l.133.399-.133.088-.487.621-.222.266-.266.487v.62l-.354.398-.133.311-.224.265v.266l-.133.267v.222l-.887.886v.222l-.708.975v.354l-.133.133v.266l-.134.487v.842l-.354.487-.133.133-.133.222-.089.399-.133.133-.133.354h.133v.221l.133.267v.354l-.133.266v.487l-.133.222v.133l-.133.266v.222l.133.133.266-.222v-.531l.089-.089v-.266l.133-.222v-.753l.133-.267.133-.088.222-.398v-.089l-.133-.266.133-.134.487-.708.487-.532-.221-.487h.133l1.949-.842h.753l.842.62.266.222v.263l.089.133.62.487h.488l.398-.487v-.266l-.398.133-.089.133-.399-.398v-.089l-.221-.398-.267-.222-.222-.487-.133-.133-.886-.266-1.196.266-.486.354-.887.398-.221-.133v-.398l.088-.222h.133v-.265l.134-.354.354-.354.133-.222.266-.266.354-.133.487-.487.487-.399c.354-.222.487-.354.62-.354l1.374-.753.222.266v.354l.133.487v.487l-.133.621.133.177v.443h.133v1.506l.089.487v.354l.398-.133.089-.133.133-.222v-1.107l-.133-.266v-.621h-.089v-2.437l-.133-.089v-.266l-.265-.397-.488-.089-.487.222-.133.133-1.816.975.222-.753v-.222l.133-.266.975-.709v-.266h-.356l-.266.133.133-.266.62-.621 1.108-.842.133-.487h-.487v-.133l1.107-.975.089-.354.753-.753 1.595-1.107.887-.843.62-.531.975-.576 3.057-1.24 1.596-.354.133.354.222.133 1.728.487c.62-.266.975-.266 1.241 0l.975.487.753.222.62.487.62.398.975.842.621.399.62.222 1.107.753.354-.133-.266-.354-.709-.487-1.107-.532-2.703-2.082-2.215-.709h-.754c-.222-.266-.487-.398-.753-.398l-.709-.222-1.24-.133-2.216.354c-.62.266-1.107.487-1.373.62l-.576.398-.62.089v-.222l1.107-.975h.089l.531-.398.089-.222v-.134l.398-.354.354-.62.62-.488.133-.266.222-.354.133-.266 1.108-.354.133-.133-.266-.354v-.266l.133-.222-.133-.62-.134-.133-.487-.975v-.621l-.088-.354v-.62l.088-.266v-.133l.134-.222v-.266l.133-.089v-.62l.133-.487v-.753l-.133-.267v-.222l.133-.266v-.354l.088-.266v-.089l.134-.266.133-.133v-.222l.133-.266.487-.487-.266-.753-.089-.842.487-.843.487-.133.709.354c.398 0 .753.267 1.107.621v.133l.399.709v.531l.088.222.399-.222v-.887l-.267-.486-1.107-.976-.709-.354.354-.267.354-.133h.266v.266h.487l.621-.133.133.133v.222h1.462l.133.398-.266.222.886.399v.088l-.133.134v.133c.133.133.222.221.62.221l.089-.221-.354-.354v-.266h.133l-.133-.134-.487-.708-.266-.267-.487-.133-.353-.347v-.354l.842-.753.266.133h.266l.089-.133v-.576h.133v-.664l.133-.222v-.133l.133-.267v-.487l-.398.399v.266l-.091.089-.133.62v.221l-.133-.133.133-.221v-.487l.133-.621v-.354l.089-.398v-.089l.133-.266v-.266l.133-.089v-.222l.222-.531.133-.133.753-1.463.133-.089.222-.531.134-.354.221-.399v-.222h.133l.267-.62.354-.62.13-.133.222-.488.266-.354.266-.266v.398l.089.221.266-.354.222-.62.133-.133v-.222h.398l.089.222.398-.222.709-.754v-.133l.487-.487 1.02.133.222-.133-.754-.222-.222-.487-.266-.266-.487-.975-.133-.134v-.265l-.089-.089v-.266l-.133-.223v-3.81h-.133v-.398l.133-.089.354-.134.267-.266v-.708h.133l-.133-.399v-.487l-.267-.222-.354-.133v-.398l.621-1.107.221-.222v-.133l.134-.133-.134-.222v-.133l-.088-.134v-2.082l-.133-.133v-.354l-.134-.133v-.222l-.133-.399v-1.81l.133-.133v-.621l.134-.222v-.398l.221.266v.133l.134.089v.133l.132.133v.134l.134.088v.133l.088.134.267.753.133.222.133.133v1.728h-.133v2.216h.133l.222-.266h.133v-2.083l.133-.354v-.753l.088-.842v-.487l.134-.133v-.267h.133v-1.462h.133v-.266l.133-.089v-.266h.089l.266.266.133.222v.133l.089.133.133.222v.133l.133.133v.133l.133.354v.134h.089v.221l.133.267v.133h.133v.222l.267.266v.222h.088v.886l.133.487v.222l.133.398v.089l.222.133.266.354 1.729 1.02.753.708v.267l.089.222h.133v.266l.133.133v.089l.354.398.133.222.133.133.089.266.133.089v.133l.266.398.354.354.354.222.267.133.133.266.221.222.267.62h.133v.266l.089.134.133.354v.134l.221.222v.133l.887.354.133.398-.133.089-.133.266-4.165 1.595c-.354.133-.753.267-.842.354l-2.836 1.24-1.24.843-.222.266h-.133l-.133.266-.267.222-.088.266-.266.222-.222.133v.133l.089.222.486-.222 1.02-.975 1.596-1.24.088.133.62-.133 2.703-1.374 7.399-2.082 3.811-.222 5.893.576h.354l.487.133.266.266-.133.222.487.398-.62.222v.266h1.24l.753.134h.709l-.089-.532v-.089l.222-.133v.222h-.222l.089.532.267.221.354.134.133-.267v-.62l.133-.222v-.487l.133-.266v-1.24l.089-.354v-.843l-.222-.486-.133-.133-.222-.488-.133-.487-.267-.398-.487-.354-.354-.62v-.222l-.141-.28.133-.133v-.133l.134-.222.088-.133v-.222l.62-.886v-.22l.134-.267.133-.133.222-.354.133-.354v-.398l.266-.487.089-.354.133-.133.398-.709v-.532l.222-.487v-.088l.133-.266v-.268l.133-.088.089-.267v-.222l.133-.266v-.133l.266-.487.222-.222v-.266l.398-.487.089-.266v-.222l.266-.266.354-.842.399-.354.088-.267v-.133l.133-.133.134-.222.133-.354.222-.531.133-.089.975-1.507.395-.705.354-.399.222-.487.266-.354.133-.266.133-.089.354-.753.222-.266.399-.576.354-.133z" stroke="#fff" stroke-width="1"/>
<path d="m37.801 25.614-.133-.487-.487-.133-.133.133-.132.222.132.398.133.222h.088l.399-.088h.133z" stroke="#fff" stroke-width="1"/></svg>
